<svg width="205" height="208" viewBox="0 0 205 208" fill="none" xmlns="http://www.w3.org/2000/svg">
<path d="M205 104C205 161.438 159.109 208 102.5 208C45.8908 208 -3.15783e-06 161.438 -3.15783e-06 104C-3.15783e-06 46.5624 45.8908 3.28111e-06 102.5 3.28111e-06C159.109 3.28111e-06 205 46.5624 205 104Z" fill="#2945FF"/>
<ellipse cx="102.5" cy="98.5" rx="102.5" ry="98.5" fill="#5373FF"/>
<path d="M183.712 104C183.712 149.84 147 178 101.712 178C56.4251 178 19.7125 149.84 19.7125 104C19.7125 58.1604 56.4251 21 101.712 21C147 21 183.712 58.1604 183.712 104Z" fill="#BCC1FF"/>
<ellipse cx="102" cy="106" rx="82" ry="77" fill="white"/>
<path d="M141.989 76.8306C141.291 76.5726 140.541 76.4594 139.792 76.4988C138.775 76.5658 137.957 76.953 137.47 77.5882C134.609 81.3559 132.264 88.4705 130.373 94.1891C129.506 96.8322 128.34 100.37 127.498 102.05C126.619 97.345 127.612 80.1106 127.997 73.4735L128.003 73.3663C128.27 68.7556 128.306 67.946 128.249 67.5907C127.824 65.0616 126.745 63.4007 125.04 62.6582C123.318 61.904 121.081 62.2392 118.67 63.6018C117.462 64.289 117.127 66.6455 116.091 77.3284L116.087 77.3753C115.516 83.2447 114.2 96.7601 112.583 99.0127C110.758 95.8618 108.247 77.9703 107.162 70.2254C106.404 64.8018 105.962 61.6878 105.664 60.7476C105.04 58.7766 102.4 57.1005 99.7876 57.0067C97.6118 56.9061 95.8282 57.9453 94.9757 59.752C93.3813 61.4196 93.9449 66.9455 95.707 80.0352C96.5452 86.2666 98.2752 99.1334 97.1873 100.578C95.0132 100.355 91.2839 92.2952 86.1028 76.6127C84.6474 72.2216 84.198 70.9009 83.7521 70.3226C82.871 68.3081 79.8783 66.7544 77.1959 66.9304C76.9702 66.9451 76.7457 66.9726 76.5235 67.0125C75.1199 67.274 71.9149 68.4891 72.5998 74.0953C74.4903 81.867 76.5467 87.5722 78.5407 93.1114L78.5817 93.222C79.7748 96.5406 80.9038 99.6747 81.9525 103.152C84.4227 111.365 83.4614 116.46 83.4507 116.519C83.3686 117.042 83.1956 117.362 82.937 117.474C82.8269 117.519 82.7091 117.544 82.5892 117.549C81.8045 117.6 80.6309 117.114 80.0263 116.795C78.6423 114.311 71.758 102.475 65.5192 100.833L65.2945 100.771L65.068 100.791C62.7798 100.994 61.0979 101.807 60.0688 103.206C58.4387 105.418 59.1146 108.237 59.2769 108.804L59.3697 109.005C59.4196 109.091 64.4242 117.662 65.1982 121.649C65.8652 125.068 69.3199 128.772 72.0986 131.749L72.2128 131.871C73.1188 132.843 73.9 133.686 74.5171 134.465C82.5767 142.365 95.3217 149.008 95.4252 149.064C97.0161 150.165 97.8989 151.231 97.9934 152.147C98.0369 152.494 97.9345 152.843 97.7081 153.12L97.4316 153.391L99.1937 155L132.818 152.781L134.252 146.607C138.686 129.173 137.76 114.306 137.744 114.209C137.762 113.661 139.004 108.372 140.002 104.098L140.033 103.989C142.025 95.4746 144.5 84.8822 144.977 80.8547C145.183 79.1318 144.01 77.5496 141.989 76.8306Z" fill="#3B4262"/>
</svg>
